HIERARCHY
ROOT joint_Root
{
	OFFSET 0.0 0.0 0.0
	CHANNELS 6 Xposition Yposition Zposition Zrotation Xrotation Yrotation 
	JOINT Hips
	{
		OFFSET 4.5925 91.4895 -427.239
		CHANNELS 6 Xposition Yposition Zposition Zrotation Xrotation Yrotation 
		JOINT Spine
		{
			OFFSET 15.7357 0.0 0.0
			CHANNELS 6 Xposition Yposition Zposition Zrotation Xrotation Yrotation 
			JOINT Chest
			{
				OFFSET 8.98455 -0.406207 0.0
				CHANNELS 6 Xposition Yposition Zposition Zrotation Xrotation Yrotation 
				JOINT Neck
				{
					OFFSET 16.3773 0.0 0.0
					CHANNELS 6 Xposition Yposition Zposition Zrotation Xrotation Yrotation 
					JOINT Head
					{
						OFFSET 6.45672 0.0 0.0
						CHANNELS 6 Xposition Yposition Zposition Zrotation Xrotation Yrotation 
						End Site
						{
							OFFSET 0.0 0.0 0.0
						}
					}
				}
				JOINT Shoulder_L
				{
					OFFSET 12.9942 -0.242716 4.98039
					CHANNELS 6 Xposition Yposition Zposition Zrotation Xrotation Yrotation 
					JOINT UpperArm_L
					{
						OFFSET 5.34809 0.0 0.0
						CHANNELS 6 Xposition Yposition Zposition Zrotation Xrotation Yrotation 
						JOINT LowerArm_L
						{
							OFFSET 24.3286 1.87007e-05 0.0
							CHANNELS 6 Xposition Yposition Zposition Zrotation Xrotation Yrotation 
							JOINT Hand_L
							{
								OFFSET 22.2916 0.0 0.0
								CHANNELS 6 Xposition Yposition Zposition Zrotation Xrotation Yrotation 
								End Site
								{
									OFFSET 0.0 0.0 0.0
								}
							}
						}
					}
				}
				JOINT Shoulder_R
				{
					OFFSET 12.9945 -0.242716 -4.98039
					CHANNELS 6 Xposition Yposition Zposition Zrotation Xrotation Yrotation 
					JOINT UpperArm_R
					{
						OFFSET -5.34813 0.0 0.0
						CHANNELS 6 Xposition Yposition Zposition Zrotation Xrotation Yrotation 
						JOINT LowerArm_R
						{
							OFFSET -24.3289 0.000322201 0.0
							CHANNELS 6 Xposition Yposition Zposition Zrotation Xrotation Yrotation 
							JOINT Hand_R
							{
								OFFSET -22.2915 -0.000108084 0.0
								CHANNELS 6 Xposition Yposition Zposition Zrotation Xrotation Yrotation 
								End Site
								{
									OFFSET 0.0 0.0 0.0
								}
							}
						}
					}
				}
			}
		}
		JOINT UpperLeg_L
		{
			OFFSET -2.19248 -6.46944 0.0
			CHANNELS 6 Xposition Yposition Zposition Zrotation Xrotation Yrotation 
			JOINT LowerLeg_L
			{
				OFFSET 39.0811 0.0 -1.23785e-05
				CHANNELS 6 Xposition Yposition Zposition Zrotation Xrotation Yrotation 
				JOINT Foot_L
				{
					OFFSET 40.9854 0.0 -1.26872e-05
					CHANNELS 6 Xposition Yposition Zposition Zrotation Xrotation Yrotation 
					JOINT Toes_L
					{
						OFFSET 11.7543 0.0 0.0
						CHANNELS 6 Xposition Yposition Zposition Zrotation Xrotation Yrotation 
						End Site
						{
							OFFSET 0.0 0.0 0.0
						}
					}
				}
			}
		}
		JOINT UpperLeg_R
		{
			OFFSET -2.19251 6.46944 0.0
			CHANNELS 6 Xposition Yposition Zposition Zrotation Xrotation Yrotation 
			JOINT LowerLeg_R
			{
				OFFSET -39.0811 -0.00228153 -0.0401928
				CHANNELS 6 Xposition Yposition Zposition Zrotation Xrotation Yrotation 
				JOINT Foot_R
				{
					OFFSET -40.9854 0.0 0.0
					CHANNELS 6 Xposition Yposition Zposition Zrotation Xrotation Yrotation 
					JOINT Toes_R
					{
						OFFSET -11.7543 0.0 0.0
						CHANNELS 6 Xposition Yposition Zposition Zrotation Xrotation Yrotation 
						End Site
						{
							OFFSET 0.0 0.0 0.0
						}
					}
				}
			}
		}
	}
}
MOTION
Frames:	5
Frame Time:	0.0333333
0.000000 0.000000 0.000000 0.000000 0.000000 -0.000000 5.404790 84.678200 495.193000 -88.960400 4.547290 -179.752000 15.735700 0.000005 -0.000001 87.153200 82.345400 -86.286200 8.984550 -0.406207 -0.000000 7.531170 -0.759179 1.782130 16.377300 -0.000001 -0.000001 -3.354430 -2.729490 1.788730 6.456720 -0.000001 -0.000000 -5.195290 -0.926416 0.422418 12.994200 -0.242716 4.980390 -90.900000 3.464180 -75.428000 5.348090 -0.000007 -0.000001 -64.956300 30.782500 -4.662880 24.328600 0.000019 0.000005 3.005120 1.398760 -65.088600 22.291600 -0.000001 0.000005 11.778200 5.464000 -5.148070 12.994500 -0.242716 -4.980390 88.768400 7.778660 -80.974400 -5.348130 -0.000001 -0.000004 -60.136400 20.485200 -23.925500 -24.328900 0.000322 -0.000009 -20.134900 2.793820 -97.572300 -22.291500 -0.000108 -0.000004 28.201800 5.638340 -13.991500 -2.192480 -6.469440 -0.000000 -176.333000 -7.304240 -21.780900 39.081100 -0.000007 -0.000012 0.082248 -0.014189 80.206700 40.985400 -0.000006 -0.000013 2.811300 -3.733610 -59.423900 11.754300 -0.000000 0.000003 -0.004626 -0.057811 -18.928700 -2.192510 6.469440 -0.000001 -176.811000 12.292600 156.090000 -39.081100 -0.002282 -0.040193 -0.368272 0.261313 54.877900 -40.985400 0.000008 0.000006 4.779360 -2.562840 -81.427500 -11.754300 -0.000006 -0.000006 -0.004833 -0.059843 -19.007800
0.000000 0.000000 0.000000 0.000000 0.000000 -0.000000 5.551620 84.184700 492.073000 -88.942300 5.483320 179.926000 15.735700 0.000005 -0.000001 90.881400 82.288600 -90.050100 8.984550 -0.406207 -0.000000 7.653840 0.235507 1.645230 16.377300 -0.000001 -0.000001 -3.738710 -2.516180 2.080850 6.456720 -0.000001 -0.000000 -5.764080 -0.962962 0.069383 12.994200 -0.242716 4.980390 -91.037500 3.846280 -74.891200 5.348090 -0.000007 -0.000001 -66.607200 32.185200 3.698810 24.328600 0.000019 0.000005 6.080500 3.053850 -63.429400 22.291600 -0.000001 0.000005 11.857100 5.449370 -4.617130 12.994500 -0.242716 -4.980390 88.929100 7.251060 -81.575800 -5.348130 -0.000001 -0.000004 -57.671600 17.196600 -35.331100 -24.328900 0.000322 -0.000009 -19.778000 3.294740 -99.080100 -22.291500 -0.000108 -0.000004 28.543000 5.636270 -13.822100 -2.192480 -6.469440 -0.000000 -176.755000 -8.112930 -28.063000 39.081100 -0.000007 -0.000012 0.084276 -0.009091 83.838000 40.985400 -0.000006 -0.000013 3.424660 -3.094320 -61.331700 11.754300 -0.000000 0.000003 -0.004398 -0.055521 -18.835400 -2.192510 6.469440 -0.000001 -177.383000 12.772300 157.909000 -39.081100 -0.002282 -0.040193 -0.277695 0.192021 55.645900 -40.985400 0.000008 0.000006 5.314690 -1.664680 -84.273300 -11.754300 -0.000006 -0.000006 -0.003150 -0.042292 -18.293100
0.000000 0.000000 0.000000 0.000000 0.000000 -0.000000 5.585510 84.300400 488.649000 -89.101900 6.064950 179.600000 15.735700 0.000005 -0.000001 94.988700 82.273200 -94.339000 8.984550 -0.406207 -0.000000 7.623230 1.337720 1.208930 16.377300 -0.000001 -0.000001 -3.930150 -2.559510 2.361030 6.456720 -0.000001 -0.000000 -6.282440 -1.621990 0.055642 12.994200 -0.242716 4.980390 -90.874900 3.079540 -74.129700 5.348090 -0.000007 -0.000001 -69.288600 32.890600 12.005300 24.328600 0.000019 0.000005 4.306000 2.058420 -64.511600 22.291600 -0.000001 0.000005 10.693600 5.467030 -5.260120 12.994500 -0.242716 -4.980390 89.117000 6.420560 -82.153500 -5.348130 -0.000001 -0.000004 -56.631200 13.664100 -43.617000 -24.328900 0.000322 -0.000009 -18.635900 3.334260 -99.785100 -22.291500 -0.000108 -0.000004 28.343500 5.635970 -13.797200 -2.192480 -6.469440 -0.000000 -177.526000 -8.708870 -32.653400 39.081100 -0.000007 -0.000012 0.077111 -0.010739 82.065600 40.985400 -0.000006 -0.000013 3.475390 -2.759370 -64.016200 11.754300 -0.000000 0.000003 -0.004233 -0.053849 -18.767400 -2.192510 6.469440 -0.000001 -178.316000 13.469800 161.090000 -39.081100 -0.002282 -0.040193 -0.003070 0.004560 54.106600 -40.985400 0.000008 0.000006 6.251550 -0.629981 -86.236300 -11.754300 -0.000006 -0.000006 -0.002268 -0.032024 -17.875300
0.000000 0.000000 0.000000 0.000000 0.000000 -0.000000 5.538210 85.074400 484.846000 -89.612700 5.990980 179.480000 15.735700 0.000005 -0.000001 98.875400 82.314800 -98.533000 8.984550 -0.406207 -0.000000 7.418160 2.361450 0.531012 16.377300 -0.000001 -0.000001 -3.883250 -2.990360 2.566230 6.456720 -0.000001 -0.000000 -6.194670 -2.850050 0.246871 12.994200 -0.242716 4.980390 -90.505200 1.737540 -73.782300 5.348090 -0.000007 -0.000001 -72.249200 32.930700 18.998900 24.328600 0.000019 0.000005 1.542630 0.673822 -66.422300 22.291600 -0.000001 0.000005 9.250400 5.469490 -5.353310 12.994500 -0.242716 -4.980390 89.300000 5.354960 -82.541400 -5.348130 -0.000001 -0.000004 -56.516700 10.731600 -47.815400 -24.328900 0.000322 -0.000009 -17.197000 3.108860 -99.938500 -22.291500 -0.000108 -0.000004 27.622600 5.633850 -13.629300 -2.192480 -6.469440 -0.000000 -178.806000 -8.943090 -34.891700 39.081100 -0.000007 -0.000012 0.056586 -0.015089 75.063000 40.985400 -0.000006 -0.000013 2.800670 -2.938520 -66.086700 11.754300 -0.000000 0.000003 -0.004230 -0.053818 -18.766100 -2.192510 6.469440 -0.000001 -179.964000 14.218500 165.866000 -39.081100 -0.002282 -0.040193 0.054848 -0.043112 50.122100 -40.985400 0.000008 0.000006 6.272570 0.219878 -86.418300 -11.754300 -0.000006 -0.000006 -0.002551 -0.035408 -18.013000
0.000000 0.000000 0.000000 0.000000 0.000000 -0.000000 5.379680 86.248600 480.888000 -90.476800 5.194840 178.689000 15.735700 0.000005 -0.000001 102.041000 82.692700 -102.154000 8.984550 -0.406207 -0.000000 6.537020 3.040660 -0.399370 16.377300 -0.000001 -0.000001 -3.792270 -3.654920 2.808360 6.456720 -0.000001 -0.000000 -5.866350 -4.086530 0.562076 12.994200 -0.242716 4.980390 -90.091100 0.311851 -73.715700 5.348090 -0.000007 -0.000001 -74.315400 31.498600 23.882700 24.328600 0.000019 0.000005 2.533270 0.989963 -68.653100 22.291600 -0.000001 0.000005 7.814270 5.477990 -5.673830 12.994500 -0.242716 -4.980390 89.422100 4.173380 -82.108000 -5.348130 -0.000001 -0.000004 -56.811600 9.740820 -48.502200 -24.328900 0.000322 -0.000009 -16.529200 2.784160 -99.294900 -22.291500 -0.000108 -0.000004 27.572300 5.631950 -13.484600 -2.192480 -6.469440 -0.000000 179.210000 -8.972070 -35.964600 39.081100 -0.000007 -0.000012 0.029573 -0.014496 63.878900 40.985400 -0.000006 -0.000013 2.231110 -4.304920 -66.208000 11.754300 -0.000000 0.000003 -0.003834 -0.049712 -18.598900 -2.192510 6.469440 -0.000001 178.125000 14.818700 170.421000 -39.081100 -0.002282 -0.040193 0.042037 -0.039058 44.789900 -40.985400 0.000008 0.000006 5.449400 1.194640 -84.069400 -11.754300 -0.000006 -0.000006 -0.271258 -0.361502 -19.355500
